<svg xmlns="http://www.w3.org/2000/svg" width="190.967" height="190.967" viewBox="0 0 190.967 190.967">
  <g id="Grupo_55" data-name="Grupo 55" transform="translate(-390.52 -371.459)">
    <g id="Grupo_38" data-name="Grupo 38" transform="translate(390.52 371.459)">
      <circle id="Elipse_1" data-name="Elipse 1" cx="95.483" cy="95.483" r="95.483" fill="#fff" opacity="0.9"/>
    </g>
    <g id="Grupo_54" data-name="Grupo 54" transform="translate(406.386 386.225)">
      <path id="Trazado_6" data-name="Trazado 6" d="M437.344,404.834c2.005,0,3.534-.71,3.534-1.763,0-1.3-.394-4.892-.394-4.892a25.654,25.654,0,0,1-8.9,5.023A16.27,16.27,0,0,0,437.344,404.834Z" transform="translate(-330.315 -336.728)" fill="#53575a"/>
      <path id="Trazado_7" data-name="Trazado 7" d="M461.691,407.843s-3.919,3.064-7.653,3.8c-6.441.6-15.466-1.5-15.466-1.5a41.845,41.845,0,0,0,12.944,8.457c-.687,1.828-1.8,3.971-3.406,4.744-3.032,1.458-11.612,2.975-17.562,1.48a8.847,8.847,0,0,1-5.1-3.041,37.688,37.688,0,0,1-3.021-4.321,16.2,16.2,0,0,0,1.626,4.7,10.23,10.23,0,0,0,7.171,5.428,20.055,20.055,0,0,0,3.483.485l.023.017c1.489.037,1.489.037,1.694,2.3a24.62,24.62,0,0,1-.011,2.547c-.009.28-.02.565-.028.85-.009.359-.034,1.315.67,1.526a.839.839,0,0,0,.231.034c.519,0,.958-.516,1.247-.984a35.118,35.118,0,0,0,3.312-6.666c4.19-.628,7.759-1.808,8.714-2.653a4.17,4.17,0,0,0,.579-.65,2.726,2.726,0,0,0,1.86,1.15l-.011.029c.747.131.759.462.8,2.2a23.109,23.109,0,0,1-.165,2.407c-.026.265-.051.536-.077.8-.031.339-.114,1.241.542,1.483a.654.654,0,0,0,.217.046c.491.031.936-.431,1.238-.856a30.532,30.532,0,0,0,3.8-6.746c2.2-.956,3.42-2.71,4.675-4.818,2.75-4.609,3.238-6.281,3.238-8.671,0-2.054-4.872-7.707-8.8-10.9,1.577,2.2,6.658,8,6.732,11.415.026,1.172-1.041,4.313-3.112,7.55-2.014,3.149-3.534,3.534-5.8,3.8-1.9.22-2.584-.074-2.827-.268a.961.961,0,0,1-.3-.75l-.014-.114a19.147,19.147,0,0,1,.248-3.894C460.019,413.482,461.691,407.843,461.691,407.843Z" transform="translate(-347.28 -332.406)" fill="#53575a"/>
      <path id="Trazado_8" data-name="Trazado 8" d="M464.41,507.825a62.233,62.233,0,1,0-62.234-62.234A62.233,62.233,0,0,0,464.41,507.825Zm0-120.954a58.6,58.6,0,0,1,46,22.246c-3.44-1.957-6.409-3.646-8.164-4.724-4.159-2.559-5.614-2.9-6.489-2.9-1.592,0-3.819,1.147-6.181,2.362-.764.394-2.139,1.1-2.664,1.275a81.445,81.445,0,0,1-7.838-4.949c-7.228-4.88-10.845-7.18-12.8-7.18-2.139,0-6.073,2.61-14.653,8.854l-.088.063c-2.573,1.874-6.409,4.664-7.433,5.131a27.094,27.094,0,0,1-4.453-1.92l-.22-.108c-2.222-1.1-3.289-1.586-4.156-1.586-.887,0-2.057.391-8.235,5.323-.79.63-1.537,1.238-2.179,1.757l-.043.034c-.568.456-1.047.847-1.392,1.121l-.08-.057c-.134-.088-.308-.205-.513-.345l-.174-.117c-.608-.411-1.438-.973-2.216-1.463a16.405,16.405,0,0,0-1.711-.976A58.6,58.6,0,0,1,464.41,386.87ZM432.9,414.816a43.734,43.734,0,0,1,10.26,1.615l3.874,1-3.394-2.119c-.188-.117-4.724-2.884-12.785-2.747l-.474.009-.114.456a49.883,49.883,0,0,0-1.269,14.408c-1.917,1.763-14.707,9.607-22.654,26.893a59.257,59.257,0,0,1-.65-8.74,58.441,58.441,0,0,1,10.018-32.811l.014.034.037-.02c.907-.516,1.449-.816,1.769-.987.234.125.6.334,1.147.679.727.459,1.532,1,2.136,1.412l.046.031c.248.168.462.311.6.405l.094.074a2.521,2.521,0,0,0,3.714.023c.359-.28.933-.745,1.634-1.312.645-.522,1.4-1.135,2.2-1.774,4.347-3.471,5.8-4.344,6.238-4.561.582.194,1.98.887,2.613,1.2l.225.111c2.285,1.132,4.444,2.2,5.942,2.279,1.167.048,2.547-.824,9.365-5.785l.089-.063c3.631-2.644,11.193-8.141,12.69-8.215,1.286.086,7.573,4.33,10.95,6.609,6.078,4.1,8.326,5.542,9.681,5.542.913,0,2.005-.542,4.2-1.669,1.352-.7,3.871-1.994,4.647-1.994.1.006,1.055.131,4.766,2.413,1.8,1.11,4.795,2.813,8.258,4.784,1.771,1.007,3.891,2.214,6.03,3.443a58.72,58.72,0,0,1-37.521,87.438,48.082,48.082,0,0,1-.451-13.047c10.272-.625,11.455-2.339,11.455-2.339l-4.244.1c-.106,0-10.577.251-15.654-.16-5.1-.411-6-1.3-7.259-3.754-.448-.873-.978-2.239-1.54-3.682-1.232-3.178-2.633-6.783-4.253-8.218-1.372-1.215-6.392-2.833-11.25-4.4-3.349-1.081-6.812-2.2-7.485-2.727-1.971-1.552-2.772-4.033-5.422-12.254-.374-1.164-.787-2.444-1.244-3.851l-1.495-4.589.3,4.818c.034.585.924,14.348,5.417,18.184,1.86,1.592,6.29,2.938,10.574,4.244,3.589,1.09,7.3,2.222,8.218,3.186,1.375,1.452,3.161,5.93,4.344,8.894.345.87.656,1.654.918,2.268l.06.148c.453,1.135,1.517,3.791,9.442,4.125.762.031,3.489.074,4.958.1a60.126,60.126,0,0,0-.271,13.828,58.55,58.55,0,0,1-32.914-5,122.935,122.935,0,0,1,10.694-23.013s-7.351,6.384-14.282,21.174a58.829,58.829,0,0,1-28.31-36.5c3.126-7.867,10.38-22.163,24.471-31.719C432.172,425.632,431.63,421.616,432.9,414.816Z" transform="translate(-384.793 -364.181)" fill="#53575a"/>
      <path id="Trazado_9" data-name="Trazado 9" d="M449.29,420.437c-2.59,6.1-2.967,6.041-4.647,6.041a.962.962,0,0,0-.265.029c-1.506,0-3.041,0-4.5-.006.67-3.523.066-10.18-1.383-6.766-2.773,6.521-3.246,6.655-4.966,6.655-.61-.023-1.09-.051-1.395-.083-2.49-.262-3.782-.508-4.5-2.69-3.118-9.516-5.474-11.147-5.474-11.147s.636,2.27,1.013,3.694,1.169,4.658,1.617,7.065c.776,4.17,1.729,5.448,6.552,5.885,2.156.2,5.579.285,8.934.285,3.634,0,7.182-.1,8.945-.285.174-.017.325-.051.485-.08.02,0,.043,0,.063,0l.031-.014a3.664,3.664,0,0,0,2.975-2.636c-.619.026-1.421.046-2.33.063C450.728,423.055,450.4,417.83,449.29,420.437Z" transform="translate(-347.773 -310.255)" fill="#53575a"/>
      <path id="Trazado_10" data-name="Trazado 10" d="M425.085,403.961c1.857,1.968,4.63,3.1,9.322,2.738a35.964,35.964,0,0,0,10.115-2.7,51.591,51.591,0,0,1-11.022-2.927c-1.94-.716-6.866-3.106-10-3.292a51.514,51.514,0,0,0-7.254.28c2.313.485,4.5.856,5.725,1.726C423.52,400.889,423.3,402.072,425.085,403.961Z" transform="translate(-358.735 -337.549)" fill="#53575a"/>
      <path id="Trazado_11" data-name="Trazado 11" d="M449.786,400.306l.339-.288a20.262,20.262,0,0,1,8.86-3.685,37.042,37.042,0,0,1,4.165,9.69c-.61-9.139-2.579-12.391-2.579-12.391a16.046,16.046,0,0,0-1.672-.017,20.162,20.162,0,0,0-10.605,4.139c-9.088-3.209-20.435-3.309-28.975.14C419.319,397.893,435.641,394.621,449.786,400.306Z" transform="translate(-353.037 -345.213)" fill="#53575a"/>
      <path id="Trazado_12" data-name="Trazado 12" d="M416.932,407.4c.779.491,1.609,1.052,2.216,1.463l.174.117c.205.14.379.257.513.345l.08.057c.345-.274.824-.662,1.392-1.121l.043-.034c.642-.519,1.389-1.127,2.179-1.757,6.178-4.932,7.348-5.323,8.235-5.323.867,0,1.934.482,4.156,1.586l.22.108a27.094,27.094,0,0,0,4.453,1.92c1.024-.468,4.861-3.257,7.433-5.131l.088-.063c8.58-6.244,12.514-8.854,14.653-8.854,1.951,0,5.568,2.3,12.8,7.18a81.445,81.445,0,0,0,7.838,4.949c.525-.174,1.9-.881,2.664-1.275,2.362-1.215,4.59-2.362,6.181-2.362.876,0,2.33.345,6.489,2.9,1.754,1.078,4.724,2.767,8.164,4.724a58.688,58.688,0,0,0-91.68-.408A16.405,16.405,0,0,1,416.932,407.4Zm69.354,70.623a3.664,3.664,0,0,1-2.975,2.636l-.031.014c-.02,0-.043,0-.063,0-.16.028-.311.063-.485.08-1.763.183-5.311.285-8.945.285-3.354,0-6.777-.088-8.934-.285-4.823-.436-5.776-1.714-6.552-5.885-.448-2.407-1.241-5.645-1.617-7.065s-1.013-3.694-1.013-3.694,2.356,1.631,5.474,11.147c.713,2.182,2.005,2.427,4.5,2.69.305.031.784.06,1.395.083,1.72,0,2.193-.134,4.966-6.655,1.449-3.414,2.054,3.243,1.383,6.766,1.463.009,3,.009,4.5.006a.962.962,0,0,1,.265-.029c1.366,0,1.871.034,3.4-3.229-1.517-8.611,3.728-16.025,6.173-18.926-.071-.633-.24-.822-.742-.91l.011-.029a2.726,2.726,0,0,1-1.86-1.15,4.17,4.17,0,0,1-.579.65c-.955.844-4.524,2.025-8.714,2.656a35.2,35.2,0,0,1-3.312,6.663c-.288.468-.727.984-1.247.984a.839.839,0,0,1-.231-.034c-.7-.211-.679-1.167-.67-1.526.009-.285.02-.57.028-.85a24.62,24.62,0,0,0,.011-2.547c-.205-2.259-.205-2.259-1.694-2.3l-.023-.017a20.055,20.055,0,0,1-3.483-.485,10.23,10.23,0,0,1-7.171-5.428,16.2,16.2,0,0,1-1.626-4.7,37.688,37.688,0,0,0,3.021,4.321,8.847,8.847,0,0,0,5.1,3.041c5.95,1.495,14.53-.023,17.563-1.48,1.609-.773,2.718-2.915,3.406-4.744a41.845,41.845,0,0,1-12.944-8.457s9.025,2.1,15.466,1.5c3.734-.736,7.653-3.8,7.653-3.8s-1.672,5.639-8.3,10.406a19.147,19.147,0,0,0-.248,3.894l.014.114a.961.961,0,0,0,.3.75c.242.194.93.488,2.827.268,2.262-.262,3.779-.647,5.8-3.8,2.071-3.238,3.138-6.378,3.112-7.55-.074-3.411-5.154-9.21-6.732-11.415l.1.083-.083-.094c-.562-.616-.91-1.018-.91-1.018v0a4.382,4.382,0,0,1-3.252,1.033,16.27,16.27,0,0,1-5.759-1.632,25.654,25.654,0,0,0,8.9-5.023c-.026-.257-.057-.482-.083-.727a37.056,37.056,0,0,0-4.139-9.6,20.262,20.262,0,0,0-8.86,3.685l-.339.288c-7.271-2.924-15.115-3.477-21.022-3.326a126.164,126.164,0,0,0-13.489,1.483c-.157-.068-.311-.054-.468-.12l-3.406-.881a43.734,43.734,0,0,0-10.26-1.615c-1.266,6.8-.725,10.816-.844,13.883-14.091,9.556-21.345,23.852-24.471,31.719a58.829,58.829,0,0,0,28.31,36.5c6.931-14.787,14.282-21.174,14.282-21.174a123.017,123.017,0,0,0-10.694,23.013,58.55,58.55,0,0,0,32.914,5,60.126,60.126,0,0,1,.271-13.828c-1.469-.023-4.2-.066-4.958-.1-7.924-.334-8.988-2.989-9.442-4.125l-.06-.148c-.262-.613-.573-1.4-.918-2.268-1.184-2.964-2.969-7.442-4.344-8.894-.916-.964-4.629-2.1-8.218-3.186-4.284-1.306-8.714-2.653-10.574-4.244-4.492-3.837-5.382-17.6-5.417-18.184l-.3-4.818,1.495,4.589c.456,1.406.87,2.687,1.244,3.851,2.65,8.221,3.451,10.7,5.422,12.254.673.531,4.136,1.646,7.485,2.727,4.858,1.563,9.878,3.18,11.25,4.4,1.62,1.435,3.021,5.04,4.253,8.218.562,1.443,1.093,2.81,1.54,3.682,1.264,2.45,2.159,3.343,7.259,3.754,5.077.411,15.549.163,15.654.16l4.244-.1A16.677,16.677,0,0,0,486.286,478.027Zm-38.653-49.715c-1.783-1.888-1.566-3.072-3.118-4.176-1.221-.87-3.411-1.241-5.725-1.726a51.514,51.514,0,0,1,7.254-.28c3.138.185,8.064,2.576,10,3.292a51.591,51.591,0,0,0,11.022,2.927,35.964,35.964,0,0,1-10.115,2.7C452.263,431.415,449.49,430.28,447.633,428.312Z" transform="translate(-381.283 -361.901)" fill="#fff"/>
      <path id="Trazado_13" data-name="Trazado 13" d="M413.5,420.868c-.094-.588.639-.619.884-1.3C415.129,420.038,413.819,420.469,413.5,420.868Zm32.771-12.924c-.339-.029-.528.628-.847.964l.422-.068c-.037-.017-.074-.017-.108-.054C446.417,408.383,445.872,408.495,446.268,407.944Zm-.884.565a1.107,1.107,0,0,0-.813.4l.177.111C444.971,408.668,445.173,408.683,445.384,408.509Zm-11.929-4.253c.151.091.34-.168.514-.319a3.463,3.463,0,0,1-.2.551c.439.066.867.137,1.269.214-.177-.223-.277-.85-.562-1.084A1.957,1.957,0,0,0,433.455,404.256Zm-29.28,26a1.054,1.054,0,0,0-.365.034c-.014.131-.029.265-.043.4A3.309,3.309,0,0,1,404.175,430.256ZM477,407.379a.847.847,0,0,0-.853.4c.268.083.531.174.8.26C476.784,407.964,476.741,407.733,477,407.379Zm-72.7,20.629a1.59,1.59,0,0,1-.288.75c-.034.248-.066.5-.1.745a3.343,3.343,0,0,0,.856-1.332A.634.634,0,0,1,404.3,428.008Zm78.482,40.755h0l-.034.071Zm23.949-64.411a.647.647,0,0,0,.471-.105.609.609,0,0,1,.037-.234l-.308-.177A.494.494,0,0,1,506.734,404.353Zm1.66,7.61c.285.166.6-.114.9-.171a1.434,1.434,0,0,0-.476-.174A1.628,1.628,0,0,1,508.394,411.963Zm-102.433,8.061c-.023.071-.043.148-.066.22A.219.219,0,0,0,405.961,420.024ZM514.53,438.445c-.06.282-.262.665.066.459a1.8,1.8,0,0,0-.134.268.793.793,0,0,0,.057.088c.208-.622,1.412-1.412,1.247-1.974A11.026,11.026,0,0,1,514.53,438.445Zm-1.908,28.693.091-.154-.014,0A1.568,1.568,0,0,1,512.622,467.137Zm6.914-42.324a58.345,58.345,0,0,1,1.2,8.714c-.111.106-.217.166-.308.071.191-.2-.077-.322.051-.516-.462-.094-.913-.342-1.409-.131.767.7-.573.374-.636,1.115-.009-.325-.131-.419-.5-.168.322.2-.282.556-.074.767.328-.243.67-.608.938-.282-1.266,1.663-2.693,2.148-4.9,3.471-.091-.371.325-.633.687-.83l.231.225.556-.533c-.148-.188-.328-.137-.514-.023a.429.429,0,0,1-.157-.359c-.722.859-1.323.955-1.478,1.757.188-.166.379-.322.525-.086-.357.627-.708.568-.753,1.007,1.5.362-1.158,2.031-1.806,2.313-.67.445-.123.69-.639,1.11a1.09,1.09,0,0,0-1.5.622c.408.673,1.038-.742,1.472-.362-.508.653-1.312.451-1.438,1.238.074-.545-.4-.328-.736-.382-.9,1.466-1.851,1.808-2.544,3.052-.234-.214.251-.542-.18-.724-1.877,2.191-4.281,3.988-6.061,6.355-.339-.531-1.292,1.192-1.172.06.091,1.207-1.689,1.309-2.008,2.693.16-.151.262.023-.031.257-.431-.185.057-.513-.177-.727-.185.325-1.007.736-.765,1,.191-.168.382-.319.528-.08a10.4,10.4,0,0,1-3.1,1.971,1.168,1.168,0,0,1,1-.779c-.182-.237-.422-.071-.613-.285-1.078,1.612-.879,2.687-2.59,4.156.268.616.713-.168,1.027.1.439-.445.2-.785.539-1.209a2.863,2.863,0,0,0,.665-.325c-.245.214-.6.445-.4.593.071-.077.245-.077.105.106-.083.125-.271.274-.171.376.947-.89.944-.257,1.8-.75-.308-.536-.7-.425-1.073-.508a30.91,30.91,0,0,0,3.043-3.229c.12.234-.368.556.171.724.462-.405.291-.713.388-1.064.779.382,1.854-1.726,2.653-1.535-.548.465.054,1.244.588.533-1.278-.442,1.592-3.006,2.393-3.765-.339-.234,1.335-1.135,1.232-1.7.268-.057.482.345.8-.128-.57-.2.67-1.332.879-2.022.16.128.351-.043.5.168-.448.408-.819.8-.388,1.067.26-.776,1.412-1.526,2.41-2.256-.405.493-.491,1.127-.057,1-.185-.448.653-.6.878-.9l-.436-.391a3.22,3.22,0,0,0,1.135-1.232c.26.431.123.308.59.533.348-.351.231-.625.764-1,.328.5.75.234,1.2-.325a2.949,2.949,0,0,1-1.292-.037c.205-.288.5-.816.876-.9-.148,1.144.428-.291.59.533.89-.628,1.757-1.058,2.636-1.574-.337-.513-.856.727-1.175.071l.876-.9c.231.282.482.362.767.123-1.255-.887,2.459-2.73,2.4-4.313.1.237.088.493.182.727.251-.328.454-.157.673-.24.2-.514-.616-.049-.328-.576.59-.647.414-.305.382.063.7-.539-.294-.793.4-1.326.639.787.719-.859,1.346-.482-.074-.465.194-.63.539-.816.068,1.15.108,2.308.108,3.474,0,1.948-.1,3.871-.288,5.768a.774.774,0,0,0-.254.234.879.879,0,0,0,.205.2q-.167,1.583-.414,3.138c-.128.151-.254.305-.388.456-.086.1-.183.194-.271.294.245-.029.482-.051.57-.171a58.2,58.2,0,0,1-4.667,14.921,5.076,5.076,0,0,0-2.75,2.484.46.46,0,0,0-.608-.02,16.685,16.685,0,0,1-1.178,4.3,4.631,4.631,0,0,0,1.48-1.084,59.036,59.036,0,0,1-17.831,18.478c.111-.545.533-.143.679-.784-.374.151-1.366.385-1.061.873a.228.228,0,0,1,.257-.006,58.532,58.532,0,0,1-12.839,6.341,1.013,1.013,0,0,0,.126-.294c-.157.12-.382.277-.6.459-.585.2-1.17.388-1.76.57-.157-.165-.305-.408-.5-.188a.325.325,0,0,1,.037.322c-1.249.368-2.51.71-3.794,1a48.082,48.082,0,0,1-.451-13.047,48.709,48.709,0,0,0,8.438-1.09,1.82,1.82,0,0,1-.074.6,3.021,3.021,0,0,0,.8-.787c1.937-.556,2.3-1.058,2.3-1.058a10.553,10.553,0,0,0,.639-1.489c.4-.285,1.112-.054,1.2-.645a1.306,1.306,0,0,0-1.016.08,18.574,18.574,0,0,0,.693-5.132c-.619.026-1.421.046-2.33.063.282-3.389-.049-8.614-1.155-6.007-.485,1.141-.89,2.059-1.244,2.812a18.108,18.108,0,0,1-.191-4.781,4.981,4.981,0,0,1,2.644-1.9c.217-.482-.665-.362-.408-.642,1.249-.066,1.843-2.134,3.474-2.419-.105-.137-.337-.26-.188-.439.459.111,1.643-1.2,1.4-1.383-1.726,1.024-3.058,2.9-4.515,3.865-.285-.237-.6-.051-.548-.5a3.084,3.084,0,0,1-1.546,1.84c.334-.391.742-.79.573-1.1-.168.225-.4.448-.593.679.046-.24.088-.479.143-.713.531,0,1.261-.733.944-1.192-.183.339-.656.57-.864.867.054-.225.117-.448.18-.667.18-.228.137-.659.608-.528-.231-.154-.1-.362-.288-.528a29.568,29.568,0,0,1,5.351-9.385,1.253,1.253,0,0,0-.205-.65c.217.268.237.8.268,1.94a23.109,23.109,0,0,1-.165,2.407c-.026.265-.051.536-.077.8-.031.339-.114,1.241.542,1.483a.669.669,0,0,0,.217.046c.491.031.936-.431,1.238-.856a30.532,30.532,0,0,0,3.8-6.746,7.874,7.874,0,0,0,.819-.419.336.336,0,0,0,.034.245c.251-.166.616-.439.67-.719a13.09,13.09,0,0,0,3.152-3.925c.528-.881.967-1.654,1.341-2.348a4.3,4.3,0,0,0,1.241-1.578c.234.388,1.172-.08,1.866-.573.18-.973-.482-.83-1.249-.3a.936.936,0,0,1-.16.163l-.028-.023a7.123,7.123,0,0,0-.941.873c.057-.123.117-.248.168-.368a.434.434,0,0,1,.029.12c.425-1,2.208-1.423,2.621-2.553a17.1,17.1,0,0,1-2.231,1.395,9.5,9.5,0,0,0,.582-3.483,2.534,2.534,0,0,0-.2-.881c.163-.234.322-.465.282-.662a1.07,1.07,0,0,1-.468.237,22.4,22.4,0,0,0-3.189-4.481c.422-.225.821-.719.8-.867-.191.143-.205-.029-.214-.2-.089.439-.539.6-.807.824-.824-.936-1.72-1.874-2.63-2.75.308-.194.593-.4.394-.708-.214.023-.454.254-.687.428q-.689-.65-1.366-1.238a.988.988,0,0,0,.131-.211,1.414,1.414,0,0,1,.388.086.482.482,0,0,0,.462-.083c-.009-.331-.225-.345-.508-.245a4.547,4.547,0,0,0-.633.319c-.151-.131-.305-.262-.454-.385l-.086-.094-.08-.091c.305,0,.493.262.975.017-.123-.12.08-.285.174-.434.04-.066.066-.128.029-.182a.639.639,0,0,1-.051.043c-.5.468-.907.205-1.361.3-.371-.411-.6-.67-.6-.67v0a1.117,1.117,0,0,0,.282-.73c0-.622-.088-1.766-.185-2.793a1.271,1.271,0,0,0,.474-.739c-.182.151-.365.288-.5.066.351-.579.676-.508.736-.918-.568-.154-.471-.5-.128-.859a6.917,6.917,0,0,1,1.877-1.249c-.068.394-.756.491-.622,1.021.26-.14.6-.819.8-.573.109.114.339.194.248-.031l-.431-.417c.645-.394.134-.642.63-1.016a1.012,1.012,0,0,0,1.418-.536c-.359-.639-.987.665-1.381.3.491-.6,1.235-.385,1.375-1.118-.083.508.365.32.676.38.887-1.341,1.78-1.632,2.467-2.773.208.205-.251.5.143.682,1.817-1.991,4.11-3.6,5.839-5.753.305.508,1.247-1.073,1.1-.02-.026-.531.325-.821.742-1.115l.405.231c-.362.314-.673.844-.439,1.035a3.974,3.974,0,0,0,.824-.816l.291.165-.476.454c.285.245.619.208.99-.123l-.014-.046q1.266.723,2.578,1.478a58.875,58.875,0,0,1,4.31,8.774,3.673,3.673,0,0,0-1.315,1.483c-.182-.151-.351-.376-.6-.043.014.5-.485,1.064-.59,1.583a3.963,3.963,0,0,0,1.9-.576c.231-.488-.414-.69-.357-.89a3.146,3.146,0,0,0,1.412-.357l.043.108c-.134.28-.454.234-.784.633.277.3.616.171.976-.111.063.177.117.354.177.531a2,2,0,0,1-.054.385c-.562.243-1.76.465-2,1.281.7-.442,2.4-1.409,2.114-.362a1.935,1.935,0,0,0,.322-.177c.322,1.007.613,2.028.881,3.055a1.383,1.383,0,0,1-1,.57c.031-.385.382-.827.225-1.178-.571.485.077.742-.488,1.227-.274-.319-.608.051-.933.3-.317,1.107-1.923,2.136-1.954,3.263-.385-.04-.824.553-1.218.6.357-.317.508-.6.331-.816-.4,1.238-2.3,2.031-1.4,2.647-.536.667-1.66.365-1.786,1.2.137-.094.285-.3.408-.2-.3.262-.182.451-.451.708-.682-.3-1.338,1.634-2.342,1.552.673.26-.391.824-.24,1.175,1.175-.676,2.433-1.623,3.583-2.4a14.31,14.31,0,0,1-2.459,2.83c-.231-.151.342-1.269-.337-.568.254,1.155-1.592,1.5-1.794,2.584.784-.553,1.626-1.652,2.3-1.035-.536-.585.6-.425.839-.653-.565-.77,1.141-1.369,1.649-2.436.551.394.642-.18,1.121-.958.411.679.973-.277,1.432-.134-.391-1.951,2.456-2.758,3.283-3.1-.1-.068-.006-.627-.094-.762.38-.334,1.344.248,1.332-.5-.26.034-.562.533-.787.151.476-.536.958-1.15,1.381-1.016A1.1,1.1,0,0,1,519.536,424.813Zm-19.95-7.291c-.294.337-.556.482-.782.334.325-.217.434-.97.1-.716.182.285-.787.73-.382.984.374-.337.622.208.993-.125C499.378,417.859,499.669,417.665,499.586,417.522Zm-1.361-1.578c-.676.451-.7.576-.77,1.155.3-.111.6-.277.85,0-.08.074-.071.237.105.1-.123-.228.205-.151.422-.4C498.04,416.687,498.24,416.607,498.225,415.945Zm-.02,5.377c.374-.228.143-.722.531-.305.334-.288.451-1.135.128-.95C498.987,420.788,497.84,420.466,498.205,421.322Zm.645-7.211c.459-.1.168-.18.562-.539a.616.616,0,0,0-.459-.171c.08-.077.074-.24-.105-.105C499.172,413.526,498.385,413.9,498.85,414.111Zm-1.227,1.8c.28-.265.468.108.779-.334-.456-.08.394-.879-.288-.545C498.525,415.489,497.47,415.412,497.624,415.908Zm-.4-.647c.473-.188.248-.268.813-.576a.562.562,0,0,1-.18-.442A1.872,1.872,0,0,0,497.227,415.26Zm-1.5,2.065a4.758,4.758,0,0,0,.568-.924,1.041,1.041,0,0,1,.163.011c.177.191.345.462.6.037-.185-.128-.4-.029-.6-.037a.744.744,0,0,0-.106-.106c-.014.031-.04.063-.057.094-.148.014-.277-.1-.434-.026C496.063,416.661,495.664,417.023,495.724,417.326Zm.2,2.082c.417-.368.685.317,1.13-.268-.157-.194-.2-.759-.747-.719.317.228.411.491.006.819-.026-.1-.063-.736-.428-.411C496.132,418.989,495.9,419.214,495.921,419.408Zm-1.686-1.88c.325.237,1.258.573.993-.134-.576.476-.5-.071.031-.237-.145-.1-.277-.314-.459-.174.048.114.205.205.071.342A.564.564,0,0,0,494.235,417.528Zm-.733.916c.057.168.214.171.382.123.291-.086.622-.379.533-.6a3.174,3.174,0,0,1-.613.254A.926.926,0,0,0,493.5,418.444Zm1.172.308c.177-.194-.3.046-.679.337-.331.251-.593.539-.3.616a.506.506,0,0,0,.385-.228A2.1,2.1,0,0,1,494.674,418.752Zm1.224,1.709c-.528-.091-.819-1.121-1.352-.756C494.82,419.69,495.156,421.248,495.9,420.46Zm1.232,5.206c-.191.14-.205-.029-.214-.208-.362.325-.522.619-.482.884C496.582,426.317,497.347,425.94,497.13,425.666Zm.83-4.313c-.622.388-2.328,1.349-2.239,2.165C496.631,422.508,498.08,422.432,497.96,421.353Zm1.631,3.172c-.188-.1-.6.841-1.052.6-.066-.3.023-.625-.12-.916C496.845,425.546,499.846,425.909,499.592,424.525Zm.782-5.7a1.956,1.956,0,0,0-.941,1.52C499.877,419.653,500.667,419.682,500.373,418.823Zm-22.417,72.822c-.568.536-1.041,1.061-1.064,1.518C477.557,492.367,478.093,492.15,477.956,491.646Zm.214-5.36a.667.667,0,0,1-.317-.528,1.889,1.889,0,0,0-.573,1.055C477.608,486.272,477.87,486.52,478.17,486.286Zm.234-.485c.108-.6-.75-.291-.642-.827C477.063,485.547,478.036,485.755,478.4,485.8Zm9.413-22.129c.354-.234.668-.151,1.05-.639C488.53,462.89,487.5,463.267,487.817,463.672Zm.533,2.619a.574.574,0,0,1-.188-.442c-.24.468-1,.362-.833.839C487.714,466.2,487.991,466.59,488.35,466.29ZM488,476.568c.143-.836,1.192-1.172,2.114-1.512-.211-.3-.491.04-.687-.359a.949.949,0,0,0,.853-1.075,12.038,12.038,0,0,1-2.581,2.407C487.865,476.143,487.646,476.87,488,476.568Zm1.036-9.915c.291-.6,1.015.157.907-.5-.294.448-.414-.57-.713-.12C489.414,466.2,488.909,466.479,489.038,466.653Zm-.231,1.914c.257.154.031.385.054.582.217-.029,1.112-.676.964-.978C489.426,468.8,489.149,468.41,488.807,468.567Zm-.2,9.076c.345-.123,1.76-1.386,1.01-1.452.223.274-.536.676-.662.456a2.9,2.9,0,0,0,.223-.856c-.24.282-1.187.733-.987,1.218C489.166,476.314,487.905,477.56,488.61,477.643Zm-3.141,3.215.439.4C487.418,480.036,486.234,480.895,485.469,480.858Zm.131,3.3c1.586-1.067,2.513-2.333,4.156-3.357-.659.02-.071-.533-.451-.388-.944,1.364-1.646,1.94-2.961,2.077.271.265.245.582-.083.958a.712.712,0,0,0-.579-.245C485.355,483.582,485.33,483.9,485.6,484.161Zm-3.334-1.452-.026-.023a.529.529,0,0,0,.188-.622c-.217.351-1.03.8-.841,1.087l.405-.422a.259.259,0,0,0,.105.157c-.279.305-.468.59-.331.819a13.273,13.273,0,0,1,1.446-1.335c-.26-.146-.043-.388-.071-.576A8.855,8.855,0,0,1,482.266,482.709Zm-.927.371c-.405.9-1.241-.488-1.247.471.588-.225.379.533,1.053.391C480.854,483.79,481.878,482.8,481.339,483.08Zm-.1,1.2c.334.351.7.291,1.1-.094C481.975,484.164,481.627,483.947,481.236,484.281Zm-1.212-1.221c.6.083,1.269-.576,1.885-.673.083-.765-.633.188-.987.168.137-.143.074-.248.163-.38.471-.24.9-.077,1.395-.59C481.564,481.328,480.486,482.3,480.024,483.06Zm.491,6.969c-.739.667-1.6.953-1.751,1.831C479.254,491.417,480.4,490.69,480.515,490.028Zm.953,1.364a.651.651,0,0,1-.308-.533c-.659.5-.422.856-.859,1.324-.128-.177.034-.4-.066-.579l-.265.282c-.08-.054-.154-.094-.251.046.479.188-.291.6.043.813.853-.288.773-.679,1.349-1.406C481.225,491.383,481.333,491.526,481.467,491.392Zm1.826-2.539c-.414.043-1.278,1.018-1.232.205-.371.491-.645.014-1.03.647.3.622.756-.337,1.073.171-.128.553-.739.542-.7.941.388-.576,1.264.163,1.227-.211a.675.675,0,0,1-.26-1.013A1.246,1.246,0,0,0,483.293,488.853Zm1.036-2.941c-.382.382-.773.864-1.121.9C483.7,487.244,484.326,486.354,484.328,485.912Zm.773,2.989c-.182.228-.536.482-.428.662,1.07-.362-.243.514.031.813C485.358,489.8,485.655,489.281,485.1,488.9Zm7.858-5.739c-1-.077-.975,1.609-2.011,1.848-.319-.394.822-.277.185-.616-.171.3-.93.7-.7.936C491.719,485.584,492.2,483.633,492.96,483.162Zm.667,1.651c-.131-.137-2.2.984-1.577,1.192C492.113,485.536,493.162,485.365,493.627,484.814Zm15.432-19.071c-.75.494-1.56,1.495-2.174.9.485.559-.568.379-.8.588.5.733-1.107,1.244-1.609,2.225-.5-.385-.608.146-1.075.859-.368-.647-.918.231-1.344.086.308,1.831-2.37,2.5-3.152,2.8.088.063-.011.582.068.71-.371.3-1.249-.271-1.264.428.245-.02.542-.479.742-.111-.462.485-.927,1.044-1.318.907a.744.744,0,0,1-.223.85c-.536.382-.95.459-1.124.294.359.006-1.167.839-.439.653,2.271-.793-2.507,3.48-2.924,2.336-.32.442.1.764-.379,1.235-.528,0-1.121.6-1.617.374-.779.782-.893,1.532-1.746,1.572-.054.436.379.234.69.359-.234.456-.417,1.058-.953.976.18-.451.488-1.073-.279-.776.017.513-1.452,1.44-1.609,1.438-.3.491.436.234.553.5-.357.448-.262.822-.371,1.232a3.532,3.532,0,0,1-.873.262,4.608,4.608,0,0,1,.291-.873c.334-.22.679-.337.61-.665-.436.365-1.306.445-1.158.941a1.2,1.2,0,0,0-.593.619c.063.416.767.014.442.4-.733.6-1.092.456-1.44,1.058l.442.4c.75-.625.916-.856,1.463-1.3.188.123.359.417.579.257a1.315,1.315,0,0,1,.282-.656.178.178,0,0,0,.2.011c-.123-.089-.037-.214.1-.348l.046-.043.046-.043c.368-.3.813-.456,1.152-.16-.593.79-1.047,1.007-1.894,1.957.088.345.077,1,.685.354a1.009,1.009,0,0,1,.237-1.1,6.606,6.606,0,0,0,2.524-2.173c-.453.111-.165.188-.542.556a.633.633,0,0,0-.468-.154c.288-.693.976-1.48,1.349-2.45.813-.759.93.2,1.885-.656a.758.758,0,0,1,.048-.973c.128-.077.214-.146.214-.254.257-.265.6-.536.936-.839l.331.3c.262-.8,1-.682,1.172-1.826a.642.642,0,0,0,.468.163c-.017.579-2.114,2.921-2.3,2.119-.636,1.3-1,2.211-2.5,2.978.337.051-.04.75.439.4a3.635,3.635,0,0,1,1.877-1.712c-.317-.8,1.184-1.791,1.885-1.7-.354.331-.685.653-.462.893,1.124-.431,1.526-.571,1.768-1.8-.565.368-.593,1.252-1.227,1.246a.864.864,0,0,1,.08-.716c.579-.08.608-.3,1.064-.87.339.562.839-.265,1.229-.194.117-.536-.7-.194-.271-.776.724-.485.756-1.232,1.726-1.323-.043.359-.382.762-.248,1.092.545-.434-.051-.69.491-1.13.248.308.57-.029.879-.251.325-1.021,1.857-1.934,1.923-2.984.357.048.784-.494,1.149-.525-.345.282-.491.542-.331.75.4-1.144,2.208-1.826,1.383-2.427.519-.608,1.557-.288,1.7-1.073-.134.083-.277.268-.388.174.285-.234.185-.414.445-.65.622.3,1.292-1.483,2.231-1.375-.622-.262.388-.759.254-1.09-1.115.6-2.316,1.443-3.414,2.131a13.416,13.416,0,0,1,2.379-2.564c.211.148-.357,1.175.294.539C507.108,467.018,508.839,466.747,509.059,465.743Zm-16.978,5.691c.214-.274.787-.61.317-.764a2.173,2.173,0,0,0-.476,1.147c.525-.342.145.425.314.531l.539-.568C492.558,471.487,492.284,471.824,492.081,471.433Zm1.523-.742c.151-.185.288-.365.046-.482-.733.613.12,1.326.645.83-.125-.251-.282-.205-.436-.217.285-.288.491.086.764-.114-.5-.16-.048-.462-.157-.679-.371.24-.6.431-.685.784A.293.293,0,0,1,493.6,470.692Zm.123,6.332c.565.4,1.252-.471,1.9-.924C495.042,475.9,494.363,476.673,493.727,477.024ZM495.8,473.1c-.314.228-.536-.28-.879.257C495.079,473.849,495.929,473.536,495.8,473.1Zm-.938,3.9a3.915,3.915,0,0,1-1.586,1.187c.148.1.285.311.468.163-.1-.436.733-.194,1.035-.633C494.178,477.583,495.176,477.187,494.86,477Zm-1.669-4.433c.086.371-.856.522-.6,1.033.453-.342-.043.374.188.442.63-.414-.1-.613.111-.956.3-.357,1.118.009,1.047-.633C493.647,472.808,493.465,472.323,493.191,472.571Zm-1.429.81c-.359.337-.639.248-.439.662.362-.351.625.188.984-.16Zm-.981,5.442c.442-.6,1.167-.81,1.124-.3.753-.91-.6-.174-.248-1.018C491.188,478.168,490.484,478.516,490.781,478.824Zm-.108,1.224a32.669,32.669,0,0,1,3.257-2.59c-.585-.476-.8-.351-.9.513-.18-.214-.4-.051-.579-.245C492.327,478.6,490.344,479.483,490.672,480.047Zm7.208-7.145c.576-.471.764-.5.608-1.03C498.268,472.218,497.358,472.671,497.88,472.9Zm1.229-4.17c.722-.5.083-.793.639-1.269.314.419.068.99.8.462-.428-.4-.365-.876.174-1.429.16.816,1.152-.773,1.572-.938.254.271.074.582.576.265-.337-.222.879-.673.225-.85-.362.16-.14.762-.556.548a4.618,4.618,0,0,1,1.974-2.162c-.274-1.035-1.965,1.1-2.513,1.657l-.22-.2c.536-.354.257-.582.476-.89.311-.217.582-.126.913-.482-.314-.391-.782.425-1.161.519-.2.379-.08.716-.508,1.13-.779-.131-.958.75-1.817.976.262.2.234.433-.089.719-.108-.1-.242-.009-.356-.066a.533.533,0,0,0,.2-.616c-.528.676-1,.89-1.435.8.6.143-.4.531-.089.716.4.066.956-1.158,1.266-.425-.22.154-.422.123-.662.454C498.853,468.2,499.152,468.076,499.11,468.732Zm1.03,1.483c.647-.248.553-.6,1.215-1C501.121,468.726,500.06,470.007,500.139,470.215Zm-.111,1.409c-.22.368-1.07.833-.867,1.132C499.529,472.494,500.359,472.064,500.028,471.624ZM514.8,459.456c-1.033.057-1.925.976-2.8,1.794a7.522,7.522,0,0,1-1.181.95c.608.616.539-.676,1.164-.342a.5.5,0,0,0,.1-.12c.251-.308-.111-.5.339-.839.676.405,1.013-.6,1.563-.542C513.141,460.215,514.479,460,514.8,459.456Zm4.133-11.652c-.431.442-.9.881-1.361,1.321.4-.268.8-.542,1.189-.807C518.891,448.1,518.994,447.884,518.934,447.8Zm-2.253-2.439c.542-.362.67-1.672.1-1.027C517.514,444.541,515.953,445.16,516.681,445.365Zm.217.468c.562-.893.97-.194,1.492-.65-.262-.436-.63.217-.887-.22C517.357,445.242,516.612,445.63,516.9,445.833Zm1.509.485c.154-.194.431-.416.314-.562-.61.314-.713.861-.919,1.429.28-.194.5.2.822-.4C518.5,446.637,518.255,446.515,518.406,446.318Zm-1.854-4.972c.536-.194.884.579.89.217-.588-.593,1.021-1.461.414-1.592A5.312,5.312,0,0,1,516.552,441.346Zm-1.284-.205.69-.667C515.617,439.937,514.855,440.835,515.269,441.141Zm-1.455,3.894a6.7,6.7,0,0,0,4.376-3.212c.656-.228-.242.708.425.414.342-.976,2.2-1.98,1.985-2.325C518.572,441.366,515.021,443.049,513.814,445.034Zm-.636,1.238c.3-.422.81-.879.881-1.272C513.609,445.088,512.844,445.927,513.178,446.272Zm-5.522,9.23c-.493-.262-1.127.933-1.651,1.067.12.137.223.277-.046.471a9.184,9.184,0,0,0-1.238.733c-.034-.086.034-.188.114-.294.094-.126.188-.251.089-.345-.887.314-1.021.893-1.877,1.706-.02.026.031.04.023.063l1.035-.693.014-.009a40.657,40.657,0,0,1-4.684,3.7c.508.6-.867,1.053-.847,1.532.6-.456,1.149-.408,1.734-.745-.111-.134-.337-.257-.2-.431.288-.114.582-.291.836-.017.414.242-.61.716-.083.941,1.395-3.212,5.431-2.459,6.806-5.363a.44.44,0,0,0,.59.023c-.114-1.024,1.794-.936,1.612-1.863.491.568,1.289-.756,1.543-1.164,1.6-.174,2.456-2.105,4.085-2.693-.02-.265.3-.582.2-.841.422.513.77-.086.134-.131a1.334,1.334,0,0,0,.422-.648c.425.243.089.568.548.5.479-.237-.188-.827.4-.4.328-.414.456-1.1-.014-1.044-.294.237-.117.405-.183.6-.442-.411-1.64-.3-1.475.448a5.9,5.9,0,0,0-4.687,2.664C509.812,453.762,508.041,454.264,507.656,455.5Zm-8.506,6.067a4.96,4.96,0,0,1,1.249-1.241c-.5.166-.8-.568-.822-.228C500.108,460.671,498.585,461.433,499.15,461.57Zm.379-2.231c.468-.411.522-.77.24-1.078C499.5,458.646,499.17,459.039,499.529,459.339Zm3.246-1.589c-.59.79-1.358.585-1.7,1.292.205-.16.22.026.237.217a34.724,34.724,0,0,1,2.61-2.3,1.342,1.342,0,0,0,.556-.508,4.138,4.138,0,0,1-.556.508c-.462.211-.873-.063-1.355.319C502.413,457.767,503.037,457.351,502.775,457.75Zm3.985-4.333c-.474.807-.861.9-1.583,1.409.5.225,1.05-.094,1.646-.79C506.683,453.851,506.863,453.611,506.76,453.417Zm-.168,1.546c.337.157.359.143.445.282.034.054.074.128.148.248a1.067,1.067,0,0,1,.009-.417c.074-.713.736-1.161.859-1.632-.382.325-.647-.408-1.061.183C507.69,453.934,506.72,454.518,506.592,454.963Zm-1.557,1.144c-.177-.525,1.121-.582.645-1.118C505.165,455.12,504.3,456.284,505.034,456.107Zm4.387-9.584.28,1.087C510.24,447.213,509.761,446.355,509.421,446.523Zm-1.7,6.349c.451.225,1-.4,1.469-.377-.231-.3.519-.767.374-1.078C508.831,451.965,508.782,452.661,507.724,452.873Zm-.9-4.806c.134.137-.02.314.2.439.228-.3.411-.137.619-.214C507.684,447.926,507.168,447.875,506.82,448.066Zm-1.067,5.02c.953-.65,1.771-1.309,2.4-1.8-.319-.254-.673-.191-1.058.18C507.416,452.008,505.707,452.4,505.753,453.086Zm-2.39-.727c.582-.137,1.783.277,2.022-.724-.833.3-.057-.733-.157-.981C504.3,451.409,504,452.182,503.363,452.359Zm-6.74,5.057c.448.077.228.8.548.511-.12-.177.171-.414.185-.61.63.673.936.071,1.383.5-.359-.6,1.709-1.309,1.024-1.654.265-.234.451.26.7.134,1.1-1.15,2.136-2.787,3.494-3.257-.6-.18-.479.111-.3-.542-.679.944-2.833.924-3.146,2.288-.148-.1-.282-.314-.459-.171.5.4-.482.562-.653.436A12.983,12.983,0,0,1,496.622,457.416Zm-1.837,13.971c.525.02,1.187-1.1,1.649-.608.086.431-.613.234-.442.656.736-.713,1.8-1.4,1.96-2.179.2.4.479.068.687.368.282-.24.18-.416.439-.653-.807-.376-1.1-.083-1.506-.593-.687.61-.593.961-1.212,1C496.985,470.244,494.817,470.888,494.785,471.388Zm.225-.856c.408-.379.773-.394,1.184-.773C495.938,469.442,494.945,470.155,495.011,470.532Zm-.231-6.29c-.174-.345-.976.442-1.075.887q.441-.638.747-.125c-.613.656-.448.633-1.1,1.13.525.342-.616.973-.271,1.346.3-1.081,1.843-1.74,1.423-2.958.4-.61,1.324-.271,1.326-.927-.182.145-.325-.006-.471-.157-.545.739-.319-.009-.633.223A1.057,1.057,0,0,1,494.78,464.242Zm-3.965.468c1.315-.029,2.422-1.66,3.58-2.3-.522-.562-.5.576-1.038.265-.456.331.049.508-.411.833-.582-.377-.907.5-1.389.433C492.3,464.091,491.114,464.239,490.815,464.71Zm-.918-.89c-.151-.094-.288-.308-.468-.162.468.4-1.073,1.115-.927,1.563.973-.625,2.6-1.843,2.678-2.9C490.444,462.408,490.5,463.364,489.9,463.82Zm5.733-15.777c-.6.685-1.084.859-.976,1.3C495.171,448.893,495.6,448.446,495.63,448.043Zm6.11-8a.56.56,0,0,1,.168.422c.319-.325.223-.573.667-.63C502.353,439.543,502.062,439.694,501.74,440.048Zm-.685,3.306a1.89,1.89,0,0,0,1.512-.7l-.436-.4C501.725,442.687,501.232,442.709,501.055,443.354Zm-.839,1.169c-.519.2-.562.5-.961.9a2.617,2.617,0,0,1-.217.205.5.5,0,0,0,.317-.117C499.74,445.262,500.265,444.712,500.216,444.523Zm2.362,1.2a.242.242,0,0,0-.051-.285c-.471.773-.787.054-1.2.334-.14.471.468.459.9.263a2.339,2.339,0,0,0-.55.924c.285-.368.5-.108.793-.573C501.976,446.047,502.849,446.115,502.578,445.727Zm.385-3.183a1.438,1.438,0,0,1-.454.893,4.233,4.233,0,0,1-.456.405l-.328.268-.128.094-.268.188a8.032,8.032,0,0,0-1.694,1.364,2.134,2.134,0,0,0-.2.262c.094-.057.191-.125.285-.185.425-.257.847-.519,1.275-.813l.787-.565,1.013-.793C502.481,443.331,503.522,442.843,502.963,442.544Zm4.438-14.017c-.807.625-2.556,1.937-1.963,2.929a25.4,25.4,0,0,1,2.02-1.54C507.436,429.451,507.907,428.929,507.4,428.527Zm-2.87,15.066c.037-.665.63-.7.77-1.269C504.729,442.438,504.27,443.243,504.532,443.594Zm-.068-3.417c.394-.328.633-.642.579-.927a1.457,1.457,0,0,1-.747.508A.558.558,0,0,1,504.464,440.176Zm1.412-2.356c-.268.405-1.286.348-.744,1.007C505.317,438.5,506.121,438.068,505.876,437.82Zm.864-.91c-.311-.3-.482.043-.474-.419-.394.368-1.42.511-1.395,1,.7-.416-.408.456-.051.508A4.006,4.006,0,0,1,506.74,436.91Zm2.464-11.39c-.528-.314-.764-.277-.7-.881-.747.037-1.643,1.988-2.042,1.247-1.024,1.109.762,1.523,1.577,1.1C507.907,426.08,508.451,426.328,509.2,425.521Zm-2.61-1.167c-.479.111-1.791.938-.893,1.415a1.723,1.723,0,0,1,.827-.65C505.881,424.984,506.94,424.542,506.594,424.354Zm2.71-6.9c.1-.408-.616-.208-.5-.75C507.955,417.134,508.973,417.839,509.3,417.454Zm.813-1.281c-.262-.434-.616.214-.881-.22l-.425.459C509.227,416.587,509.692,416.165,510.117,416.173Zm-.442-2.145c-.217.3-.99.67-.488.879A.577.577,0,0,0,509.675,414.028Zm-.462-1.806c-.5.684-.87.4-1.306.625C508.237,413.441,509.783,412.947,509.213,412.223Zm-1.7,5.922.317.308C508.951,417.933,508.314,417.323,507.51,418.144Zm.764-1.959c-.673-.051-1.731,2.31-2.636,2.31.277.294.448-.014.428.414C506.358,418.053,508.035,417.306,508.275,416.185Zm-3.608,4.068c0,1.306-.921,2.079-.819,3.252a1.6,1.6,0,0,0,.938-1.517,6.669,6.669,0,0,1,1.583-.9c-.6-.548.753-1.421.81-2.282.089.237.736.288.613-.114-.254.054-.242-.151-.673-.382-.568.682-1.1,2.513-2.168,2.487.531-.459,1.041-1.52.693-1.486A2.467,2.467,0,0,1,504.666,420.252Zm-1.338,13.1c.374.248,1.509-.576,1.5-.9C504.318,432.891,503.856,432.763,503.328,433.356Zm1.518-9.165c.95-.479.414-1.5-.257-.781A.637.637,0,0,0,504.846,424.191Zm3.785,4.179c-.348-.1-.642-.61-1.093.023l.428.408A1.362,1.362,0,0,1,508.631,428.37Zm1.458,1.78c-.525.55-.984.379-1.48.639C508.945,431.422,510.06,430.8,510.089,430.15Zm.887-10.805c-.359.536-1.226,1.124-.876,1.041C510.485,420.278,511.543,419.841,510.976,419.345Zm1.62-.311c-.282-.408-1.255.334-.947.7A2.153,2.153,0,0,0,512.6,419.034Zm3.092-2.932c-.376-.667-1.284.228-.918.459C515.126,416.071,515.309,416.752,515.688,416.1Zm-.921-.357c.533-.61.873.111,1.341-.046-.251-.24-.071-.531-.494-.753C515.386,415.1,514.285,415.277,514.767,415.745Zm-1.018,1.169c.525-.074.7-.77.77-1.141A2.063,2.063,0,0,0,513.748,416.915Zm-.73-3.161-.7.759c.511.2-.114.61.06.87.319-.245.6.023.947-.55-.014-.331-.143-.437-.482-.414C513.047,414.171,513.338,413.906,513.018,413.754Zm-1.127-2.35c-.513-.034-1.76.9-1.549,1.378.573-.565,1.073-.656,1.663-1.366-.017-.009-.048,0-.068-.009a1.01,1.01,0,0,1,.913-.516c-.157-.14.137-.359.037-.51C512.519,410.634,511.626,410.922,511.891,411.4Zm-.839-3.954.242.208c.08.057.16.1.257-.048-.357-.394,1.027-.408.322-.81C511.578,407.314,511.341,407.045,511.053,407.45Zm-1.215,2.487c.282-.348.542-.4.779-.146.2-.185,1.033-1.078.442-.71C510.7,409.8,509.795,408.962,509.838,409.938Zm-1.6,2.43a10.76,10.76,0,0,1,1.135-.485.547.547,0,0,1,.089.305c.662-.331,1.7-1,1.768-2.077-.659.325-.508,1.135-.884,1.035-.14-.137.151-.325.071-.474-.362.519-.607.251-.921.465.125.228.482.066.319.308l-.282.271a1.094,1.094,0,0,0-.516-.371,1.62,1.62,0,0,1,.784-.9C509.059,409.915,508.277,411.863,508.235,412.368Zm-2.35-1.212c.288.673.747-.762,1.064-.439.348.188-.707.628-.06.765.633-.921.525-.5,1.246-1.1-.425-.271-.254-.847-.85-.724C507.025,410.386,506.475,410.517,505.884,411.156Zm.405,3.642c.793-.7.787-1.033,1.552-1.475C507.094,412.767,506.306,414.182,506.289,414.8Zm-.907-7.125c.459.217.106.533.248.787.465-.408.859-.8.779-1.144C506.1,408.052,505.87,407.636,505.382,407.673Zm-.422,2.039.568-.539c-.282-.237-.533-.476-.5-.75C504.8,408.877,505.037,409.276,504.96,409.712Zm-.1,3.012c.328-.385.659-.744.964-.8C505.317,411.147,504.5,412.323,504.863,412.725Zm-.342,1.067c.288.137.57.391.9-.037-.154-.24-.513-.043-.362-.314.083-.1.151-.191.023-.254Zm-1.073,4.749c.086-.194.328-.3.451-.471.379-.1.776.345,1.346-.225-.171-.479-.479-.04-.707-.143.14-.137.08-.245.174-.374.953.422,1.044-1.566,2.325-.993.582-.456.451-.833.667-1.244.177.148.348.374.6.04-.345-.308-.02-.582-.074-1.155-.131.083-.282.26-.388.166-1.021,1.691-2.949,2.536-3.942,3.928C503.748,418.113,503.6,418.221,503.448,418.541Zm-1.612-6.532c-.011.154,1.092-.936.6-1.109C502.224,411.273,501.269,411.778,501.837,412.009Zm-.619.864c.385-.091,1.466-.12,1.2-.739q-.454.62-.745.094C501.483,412.448,501.118,412.688,501.218,412.873Zm1.851,6.649c.248.593-.26,1.281-.513,1.934.5-.434.853.271,1.344-.057.031-.488.822-1.013.724-1.726.177,0,.99-.305.807-.568-.479.448-.265-.211-.844-.011-.311.18-.7.916-.95.707.228-.225-.22-.362-.04-.579l.04-.037a1.592,1.592,0,0,0,1.409-.842.511.511,0,0,0-.682.071.446.446,0,0,0-.037-.1c-.913.074-2.713,1.857-1.714,1.848-.305.468-.514.205-.807.573l.006.017c-.394.234-.736.676-.4,1a3,3,0,0,1,.5-.522.84.84,0,0,0,.043.185C502.846,420.717,502.613,420.167,503.069,419.522Zm-.2,11.772c-.165-.3.647-.739-.068-.616.086-.143.277-.3.163-.405C502.444,430.626,502.364,431.536,502.872,431.294Zm.781,2.718c-.194.023-.958.719-.613,1.015C503.462,434.66,503.716,434.318,503.654,434.012Zm1.535,1.532c-.023.048-.057.1-.086.148a.224.224,0,0,0-.086-.111c-.5.693-.342.365-.936.708.086.2.419.12.69-.054a5.679,5.679,0,0,0-.665,1.135C504.581,437.044,505.679,436.06,505.188,435.544Zm.1,9.553c-.14.1-.291.3-.411.2-.143-.143.02-.337-.214-.465a1.416,1.416,0,0,0-.456.71C504.407,446.152,505.4,445.568,505.285,445.1Zm2.1-2.884a4.376,4.376,0,0,0-2.33,1.289c.6-.4.077.376.211.465a.256.256,0,0,1,.385.063c.63-.6-.271-.613-.043-.876C506.161,443.277,506.786,442.638,507.387,442.213Zm5.211-2.935c-.616.456-.425.973-1.007,1.061C511.783,440.867,513.164,439.415,512.6,439.278Zm3.865-6.3c-.365.334-.6-.3-1.015.357C515.657,433.67,516.547,433.453,516.464,432.983Zm.034-2.231c-.682.291-.568.665-1.264,1.112C515.5,432.378,516.6,430.969,516.5,430.752Zm2.33-2.955c-.6.525-.8.568-.613,1.127C518.435,428.547,519.4,428.031,518.828,427.8Zm.81,4.016c-.128-.63.793-.733.764-1.278C519.887,430.686,518.857,431.99,519.639,431.813Zm-36.845,30.726-.026.031c-.029.177-.043.359-.066.536C482.859,462.9,482.928,462.7,482.794,462.539Zm37.076-28.6c-.14.094-.291.3-.411.2-.14-.143.02-.337-.214-.468a1.44,1.44,0,0,0-.456.71C518.991,435,519.981,434.414,519.87,433.944Zm-15.9,37.692c.322-.4,1.632-.83.884-1.3C504.612,471.014,503.873,471.048,503.97,471.636Zm8.386-30.381c.465-.174.374-.494,1-.793C512.8,439.968,512.14,440.7,512.356,441.255Zm-19.331-25.98c-.145-.046-.319.105-.488.22.014.177.029.357.043.542l.522-.508C493.077,415.44,493.051,415.363,493.025,415.275Zm9.3,56.954c.374-.18,1.01-.325,1.07-.861C503.109,470.8,502,471.921,502.324,472.229Zm-9.376-57.205-.431.225c-.146-1.692-.337-3.169-.551-4.43.234-.125.425-.26.365-.525a.736.736,0,0,1-.4.314c-.807-4.632-1.882-6.421-1.882-6.421a16.115,16.115,0,0,0-1.674-.017,20.162,20.162,0,0,0-10.605,4.139c-.262-.091-.531-.174-.8-.26a.337.337,0,0,0,.18.011,4.359,4.359,0,0,0,.137-.958c.539-.662.979-.6,1.455-.793-.137-.183-.448-.331-.288-.551.248-.231.984.388.887-.245-.5.1.374-.984.066-1.3-.385.7-.57.014-.893.24.251.542-.6.508-.382,1-.111-.1-.242-.006-.359-.063a1.364,1.364,0,0,0,.208-.619c-.747.106-.365.65-.382,1a27.229,27.229,0,0,0-2.094,1.831q-1.643-.471-3.349-.816c.191-.317.3-.6.151-.839a7.18,7.18,0,0,1-.431.787,46.331,46.331,0,0,0-10.343-.813.6.6,0,0,0,.083-.453c.422.513.773-.089.134-.137a1.259,1.259,0,0,0,.422-.642c.425.242.088.568.55.5.479-.237-.185-.827.394-.4.331-.414.459-1.1-.014-1.047-.291.237-.114.408-.18.608-.445-.414-1.64-.3-1.475.448a5.907,5.907,0,0,0-3.583,1.409,35.794,35.794,0,0,0-8.957,2.2c-1.1.143-2.005.274-2.7.379.128-.088.26-.214.391-.322.014-.385.773-1.344,1.169-1.349-.014-.436-.16-.105-.465-.371-.317.488-1.286,1.506-1.127.622.8.194,1.144-1.266,1.777-1.369a.6.6,0,0,0,.2.667c.434-.625.417-.465.305-1.024.539-.28.242.727.727.071.474-.519-.454-.194.422-.933.091.542,1.694-1.209,1.321-1.74-.625.65-.953.762-1.058,1.44a17.34,17.34,0,0,0-5.525,4.293l-3-1.871a19.953,19.953,0,0,0-6.158-2.165,1.394,1.394,0,0,1,1.033-1.874c-.191-.488-.513.374-.708-.117.214-.157.414-.125.642-.453.106.191.029.328.334.294.291-.553.5-.185.753-.359-.533-.693-1.258.616-1.771-.3a8.528,8.528,0,0,0-2.861,2.407,32.1,32.1,0,0,0-4.048-.182l-.474.009-.114.456a49.818,49.818,0,0,0-1.266,14.408c-1.885,1.731-14.239,9.35-22.212,25.989a.582.582,0,0,0-.18.368c-.086.18-.177.345-.26.528h-.006c-.128-.867-.234-1.74-.325-2.619a.8.8,0,0,1,.274-.131c-.094-.011-.191,0-.285-.006a58.206,58.206,0,0,1-.314-5.976,59.459,59.459,0,0,1,.317-6.036c1.118-.428,1.515-.57,1.76-1.8-.565.371-.593,1.252-1.227,1.249a.834.834,0,0,1,.08-.716c.579-.08.6-.294,1.067-.87.334.562.833-.265,1.227-.194.114-.533-.7-.194-.274-.776.725-.482.756-1.232,1.726-1.321a2.234,2.234,0,0,1-.177.525c-.288.285-.488.648-.228.722.59-.411.428-.9.973-.964-.066-.2-.319-.1-.568.091a.552.552,0,0,1,.248-.414c.245.311.568-.026.876-.251.328-1.018,1.854-1.934,1.922-2.984.354.049.782-.493,1.15-.522-.342.282-.494.539-.331.747.405-1.141,2.2-1.828,1.383-2.425.516-.608,1.557-.291,1.7-1.073-.131.083-.274.268-.385.171.285-.234.18-.416.442-.647.625.3,1.3-1.486,2.231-1.375-.619-.265.391-.762.257-1.1-1.115.6-2.319,1.446-3.414,2.136a13.425,13.425,0,0,1,2.379-2.567c.211.151-.357,1.172.3.539-.205-1.087,1.532-1.358,1.751-2.359-.753.493-1.566,1.5-2.176.9.479.559-.571.379-.8.585.5.736-1.1,1.244-1.606,2.222-.5-.382-.608.151-1.073.864-.368-.65-.918.228-1.344.086.311,1.828-2.367,2.5-3.152,2.8.088.063-.011.585.066.713-.368.3-1.249-.271-1.261.428.245-.023.542-.479.739-.117-.459.488-.927,1.047-1.315.91a.751.751,0,0,1-.22.85c-.536.382-.95.459-1.124.291.354.009-1.172.844-.442.656,1.227-.428.4.616-.69,1.492.066-.405.134-.813.208-1.215a.13.13,0,0,0,.026-.154q.347-1.831.807-3.62a.32.32,0,0,0,.1-.322l-.02.008c.177-.67.362-1.338.559-2,.688-.6,1.48-1.2,1.615-1.86.194.4.476.066.685.365.282-.237.18-.419.442-.656-.807-.374-1.1-.08-1.506-.59a3.651,3.651,0,0,0-.556.616,57.9,57.9,0,0,1,2.188-5.483c.739,0-.436.81.068.673.434-.5.63-1.118,1.141-.508l1.92-1.9c-.339-.063.043-.745-.437-.408.054.111.208.2.08.337-.733.317-.807.759-1.229,1.224l-.331-.305c-.242.585-.673.5-1.172.8a58.584,58.584,0,0,1,4.655-8.289l.014.034.037-.02c.907-.516,1.449-.816,1.769-.987.237.125.6.334,1.147.679.451.282.927.6,1.369.9a7.168,7.168,0,0,1-1.372.533c.414.742,1.05-.288,1.138.548a2.049,2.049,0,0,1,.685-.781l.317.217.048.031c.245.168.459.311.6.405l.094.074a2.521,2.521,0,0,0,3.714.023c.359-.28.933-.745,1.634-1.312.645-.522,1.4-1.135,2.2-1.774a59.558,59.558,0,0,1,5.933-4.39,3.829,3.829,0,0,0-.5.867c.245.277.551.111.81.245.317-.539-.453-.379.265-1.075-.1.562.454.516.87.28.548.254,1.124.542,1.472.713l.225.111c2.285,1.132,4.444,2.2,5.942,2.279,1.167.048,2.547-.824,9.365-5.785l.089-.063c3.631-2.644,11.193-8.141,12.69-8.215a17.6,17.6,0,0,1,4.384,2.291c.086.18.225.357-.12.585a.672.672,0,0,1-.28-.55c-.647.9-.745.622-1.449.742-.257.645.8.12.528.525-.508-.091-.4.719-.81.556-.311-.2.7-.548.105-.713-.51.456-.936.294-1.449.75.171.5.539-.348.7.151-.693-.014-.745.707-1.446.744-.137-.331,1.078-.819.531-1.1-.476.551-.513.765-1.093.822.4.533-.379.856-.918,1.266a.614.614,0,0,0,.459.18.971.971,0,0,0-.294.428l-.117.009c.16-.779-1.144.419-1.181-.1-.043.057-.077.12-.114.18-.314.5-.533,1.047-1.326,1.115.242-.274-.254-.094-.068-.337.351-.488.562.029.913-.459-.884.051-.961-.348-1.834.1.068.745.3.516.85.83-1.1,1.041-1.281.861-1.863,1.968-.18-.154-.348-.377-.6-.046.011.5-.488,1.064-.593,1.583a3.943,3.943,0,0,0,1.9-.576c.231-.485-.414-.687-.357-.89a2.985,2.985,0,0,0,1.515-.408c-.066.5-.456.325-.844.793.454.491,1.078-.163,1.689-.779-.334-.913.665-.75.63-1.82.414.947,1.346-.73,1.552-.645a.589.589,0,0,1,.177.445,12.433,12.433,0,0,1,.907-1.041c.248-.011.493-.014.742-.023a20.257,20.257,0,0,0-4.145,4.03c-.108-.1-.014-.231-.071-.339-.436.362-.288.653-.385.976-.562.245-1.76.468-2,1.284.7-.445,2.4-1.409,2.114-.365a6.3,6.3,0,0,0,2.1-1.991c.439.117.023.856.562.28.131-1.187,2.47-2.562,3.2-2.8a2.331,2.331,0,0,1,1.4-1.118c.114,0,.231.006.345.006.08.023.171.02.228.077l.089-.068c.887-.733,2.02-1.532,3.1-2.325,1.075.707,2.114,1.406,3.009,2.008-.531.582-1.252,1.189-.958,1.657.168-.77.9-1.01,1.187-1.5l.345.231c.391.265.764.516,1.124.759-.285.4-.782.827-.787,1.187.725-.488.069.776-.468.656a.556.556,0,0,1,.18.442c.431-.051.385-.551,1-.967-.337-.305.048-.71.382-1.112l.28.188c-.262.314-.57.636-.411.89.288-.237.548-.439.8-.63.328.217.642.428.941.625-.371.482,0,.861-.342,1.335a1.28,1.28,0,0,0,.459-1.258c.608.4,1.161.765,1.666,1.09a1.768,1.768,0,0,0-.656,1.021c.242-.619.733-.65.947-.836l.319.2c0,.034-.026.071-.086.114.089.26.228.154.371.06.091.06.191.12.28.177-.194.348-.745.747-.719,1.067.322-.548.514-.171.784-.345-.165-.131.077-.317.305-.5.539.319,1.007.579,1.415.781-.026.066-.051.137-.077.194a.591.591,0,0,0,.2-.134,4.332,4.332,0,0,0,1.78.536c.913,0,2.005-.542,4.2-1.669,1.352-.7,3.871-1.994,4.647-1.994a6.859,6.859,0,0,1,1.937.8c-.242.331-.365.633.014.522-.151-.068.091-.24.328-.342l.151.077c-.217.234-.223.565.125.3a.665.665,0,0,0,.051-.205c.59.325,1.292.73,2.159,1.264,1.686,1.036,4.416,2.6,7.593,4.4a1.454,1.454,0,0,0-.011.8,3.866,3.866,0,0,0,.4-.576l.274.16.037.02a.608.608,0,0,0-.325.231c1.181.451-1.574,2.761-2.342,3.443.311.228-1.281,1.021-1.2,1.555-.254.048-.439-.339-.747.1.525.2-.665,1.221-.881,1.863-.145-.126-.325.031-.462-.177.425-.365.787-.722.391-.981-.265.719-1.36,1.384-2.313,2.034.391-.448.488-1.035.08-.93.157.428-.628.545-.847.813l.394.377a3.041,3.041,0,0,0-1.093,1.115c-.231-.408-.108-.291-.536-.513-.334.317-.231.579-.742.916-.294-.474-.693-.242-1.13.265a2.793,2.793,0,0,1,1.2.074c-.2.265-.491.747-.841.813.171-1.061-.405.26-.536-.511A18.423,18.423,0,0,1,492.948,415.024Zm10.52-9.213a2.072,2.072,0,0,0-.779,1.15C503.072,406.563,503.753,406.127,503.468,405.81Zm-1.244-1.48c.693-.017,1.255.859,1.985.57a.669.669,0,0,1-.28-.551c-.559.6-.448-.24-.673-.379A6.966,6.966,0,0,1,502.224,404.33Zm-5.859-1.592c.228-.342,1.161-.773.642-1.018C496.722,402.33,496.049,402.265,496.366,402.738Zm-.839,6.549c0,.271.257.51.251.781.311-.234.137-.408.208-.607a.9.9,0,0,0,1.386-.3A9.028,9.028,0,0,1,495.527,409.287Zm-1.078-10.049c.1-.422.508-.516.733-.727a.419.419,0,0,0,.16-.325,1.613,1.613,0,0,0-.8.585C494.409,398.945,494.332,399.121,494.449,399.238Zm-35.692-5.214c.4.2,1.617-.494,1.46-.9C459.732,393.571,459.227,393.114,458.756,394.024ZM411.94,410.3c.171-.2.8.414.625-.2-.767.174.867-.964.148-1.184C412.382,409.385,411.774,409.9,411.94,410.3Zm-3.928,10.8c-.22.345-1.132.8-.6,1.033C407.98,421.667,408.172,421.633,408.012,421.1Zm1.164-2.613c-.488.057-1.469.619-1.332,1.118C408.254,419.63,409.78,419.108,409.176,418.492Zm1.706-.046c-.234-.485-1.3.793-1.212,1C410.314,419.2,410.217,418.846,410.881,418.447Zm2.416-5.314a4.87,4.87,0,0,1-.488-.245c-.071-.043-.143-.088-.214-.134s-.154-.091-.225-.143c-.268.111-.576.516-.841.579-.191.382-.08.716-.5,1.135-.779-.134-.964.747-1.82.973.262.2.234.436-.088.719-.108-.1-.242-.006-.354-.063a.526.526,0,0,0,.194-.619c-.528.679-1,.89-1.432.8.6.143-.405.531-.091.716.4.066.953-1.155,1.266-.422-.22.151-.419.12-.659.448.336.553.639.428.6,1.084.719-.5.086-.793.642-1.269.311.422.06.993.79.465-.425-.405-.365-.879.174-1.429.16.813,1.152-.776,1.575-.941.254.274.074.582.573.268-.334-.225.879-.676.225-.853-.359.16-.137.764-.553.551A3.463,3.463,0,0,1,413.3,413.133Zm1.229-6.213c-.331.068-.724-.083-.676-.374C412.935,407.268,414.629,407.459,414.527,406.92Zm2.724-.6c-.394-.4-.847-.28-1.332.066.071.3-.108.633.371.881Zm-10.32,28.544c.5-.508.134-.881.265-1.332C407.436,432.732,406.449,434.586,406.931,434.859Zm-2.271-.234c-.371.154-1.363.385-1.058.876a.233.233,0,0,1,.357.06C404.016,434.774,404.506,435.324,404.66,434.626Zm2.6.533c-.571.576-3.651,2.094-2.171,2.211A5.067,5.067,0,0,0,407.262,435.159Zm11.3-22.848a3.163,3.163,0,0,0-.879,1.284c.285-.371.5-.111.793-.573C417.967,412.662,418.951,412.756,418.563,412.311Zm-2.781,12.579c-.265.388-.6.781-.237,1.078C416.01,425.558,416.061,425.2,415.782,424.89Zm4.193-5.217c-.6-.177-.479.114-.3-.542-.679.947-2.832.924-3.143,2.288-.151-.1-.285-.311-.462-.168.5.4-.476.562-.65.436a13.083,13.083,0,0,1-2.787,2.362c.448.077.228.8.548.511-.117-.18.174-.414.188-.61.628.673.936.069,1.383.5-.359-.6,1.706-1.309,1.021-1.654.265-.234.451.26.7.134C417.57,421.781,418.617,420.144,419.975,419.673Zm2.131-1.868c-.291-.371-.639-.009-.993.411C421.41,418.509,421.76,418.15,422.106,417.8Zm.8-1.084c-.3.6-1.132.365-1.03.887.288-.086.593-.431.861-.268-.339.337-.628.251-.411.656C422.9,417.862,422.921,417.115,422.91,416.721Zm8.463-13.372c-.237-.314-.565.009-.873.223l.319.308Zm1.1-3.734c-.368.334-.6-.3-1.012.357C431.67,400.3,432.557,400.086,432.474,399.615Zm15.01,1.595c-1.107.91-2.091,1.754-2.707,2.173C445.5,403.477,447.084,401.808,447.484,401.209Zm4.547-4.664a5.25,5.25,0,0,0-3.186,2.522C449.925,397.513,451.414,397.678,452.03,396.546Zm2.248,2.359c.157-.3-2.182,1.426-1.643,1.207a1.7,1.7,0,0,1,.645-.22Zm4.159-4.458c-.448-.165-.109-1.483-1.178-.833,1.115,1.021-1.169,1.135-1.617,1.777C456.606,396.474,457.484,393.93,458.437,394.446Zm8.044,7.653c-.411.322-.75.117-1.178.533C465.571,402.852,466.524,402.576,466.481,402.1Zm1.458-1.635c-.613.522-.431.807-.961.736.057.068.105.143-.034.237l.217.205C467.665,401.055,468.321,401.027,467.938,400.465Zm13.067,1.175c-.1-.143.108-.325.319-.514-.6-.308.274-.824-.074-1.167C480.771,400.5,480.8,401.586,481.005,401.64Zm-1.54-.371c.474-.7.8-.439,1.215-.756-.471-.291.12-.725-.217-1.03C480.324,400.234,479.337,400.8,479.465,401.269Zm-.18-1.266a1.117,1.117,0,0,0,.177-1.2C478.943,399.267,479.388,399.595,479.285,400Zm-3.354,2a.8.8,0,0,1,.573-.374c.294-.071.562-.1.533-.491-.262.265-.388.214-.359-.066a2.227,2.227,0,0,1-.431.405C476.014,401.674,475.8,401.865,475.931,402.005Zm-2.162-5.337c.368-.756,1.152-.168,1.107-.864a1.549,1.549,0,0,1-.645.208c-.105-.137.014-.476-.322-.305C474.114,395.989,473.706,396.363,473.769,396.668Zm-.146.964c.588-.779,1.07-.844,1.326-1.489C474.308,396.834,473.418,396.765,473.623,397.632Zm-.784,1.172c.745-.434.667-1.341.177-1.207C473.31,397.949,472.833,398.414,472.839,398.8Zm-2.755.4c-.305-.422-.816.562-1.147.285-.006.314.359.576-.137.967-.4-.182.068-.485-.148-.687-.733.756.006,1.075.616.853C469.042,400.222,469.473,399.732,470.083,399.207Zm1.152-.947c.6-.613,1.475-1.269,1.6-1.928a5.131,5.131,0,0,1-1.823,1.56c.26.063.217.171.108.291-.14.154-.391.325-.211.434A3.694,3.694,0,0,1,471.236,398.26Zm1.246,6.481c.294-.074.628-.408.924-.485-.254-.16-.02-.391-.04-.585-.451.054-.368.451-.6.8-.225.06-1-.268-.887.245A.45.45,0,0,1,472.482,404.741Zm1.247-.18a3.133,3.133,0,0,1-.317.6.763.763,0,0,1-.533.228.546.546,0,0,1,.18.442c.314-.251.243-.448.354-.67C473.509,404.963,473.809,404.735,473.729,404.561Zm.613-6.8c-.565.756-1,.767-1.07,1.449C473.834,398.693,474.308,398.2,474.342,397.761Zm.5,6.757c-.157-.214,0-.471.354-.759a.574.574,0,0,1,.18.445c.593-.593.088-.562-.288-.545C474.7,403.922,474.279,404.775,474.839,404.518Zm1.321.16c-.334.014-1.284-.068-1.315.662C475.278,404.667,476.148,405.271,476.159,404.678Zm3.494-2.145c-.522-.813-.254-1.053-.722-1.777-.234-.057-.565.516-.784.345.031-.357,1.172-.753.67-1.266a10.2,10.2,0,0,1-1.891,2.051,2.968,2.968,0,0,0-.742.907c.282-.254.291.491.4.65.568-.551,1.158-.548,1.469-.91.3.165.582.317.85.453a.151.151,0,0,0-.18.034c.188.125.345.425.576.268a.251.251,0,0,1-.046-.131C479.22,402.972,479.365,402.764,479.653,402.533Zm.325,1.951a.84.84,0,0,0-.382,1C480.021,405.1,480.384,404.741,479.979,404.484Zm3.737-2.989c-.231.388-.708.8-.531,1.135C483.4,402,484.2,402.025,483.715,401.495Zm.608-.784c-.257-.162-.023-.391-.037-.585-.185.154-.368.3-.5.071-.28.4-.516.913-.93.479.87-.485-.345.068-.536-.513-.194.222-.565.473-.459.656.913-.8-.573.981.285.545-.208-.311.548-.539.642-.208-.753.693-1.372.456-2.1,1,.488.436-.151,1.073-.722,1.329a1.4,1.4,0,0,1-.345.114c-.029.448.319.094.291.542.807-.653,1.406.14,2.154-.063a.377.377,0,0,0,.057-.011c-.282-.354-1.266-.182-1.141-.542,1.264-.009.944-.89,1.737-1.891C483.738,401.535,483.593,400.853,484.323,400.71Zm1.161-.3a.208.208,0,0,0-.077.034.335.335,0,0,1-.123.023c-.023,0-.037.017-.068,0l-.023.037a.234.234,0,0,0,.091-.04.335.335,0,0,0,.123-.023c.02,0,.037-.017.057-.006Zm.8,1.09c.143.14-.151.334-.071.479a.24.24,0,0,1,.359.066C487.141,401.657,486.719,401.124,486.285,401.5Zm5.993-4.082a.233.233,0,0,1,.357.068c-.086.128-.277.274-.177.376.191-.3.536-.616.5-.887C492.809,397,492.09,396.962,492.278,397.416Zm-.576,3.825c.431-.451.773-.884.428-1.229A1.852,1.852,0,0,0,491.7,401.241Zm.981,7.488c.248-.271.4-.525.351-.756a5.785,5.785,0,0,1-1.03.374.582.582,0,0,1,.18.445C492.369,408.637,492.549,408.5,492.683,408.728Z" transform="translate(-382.511 -355.769)" fill="#ff8d6b"/>
      <g id="Grupo_46" data-name="Grupo 46" transform="translate(22.937 128.143)">
        <g id="Grupo_45" data-name="Grupo 45">
          <g id="Grupo_39" data-name="Grupo 39" transform="translate(0 4.419)">
            <path id="Trazado_14" data-name="Trazado 14" d="M412.891,435.28c-.074,0-.146,0-.217-.006-1.395-.1-3.041-1-5.049-2.767a10.628,10.628,0,0,1-3.292-4.17,5.134,5.134,0,0,1,.964-4.609l.425-.619,1.712,1.2-.428.616a3.045,3.045,0,0,0-.556,3.126,9.726,9.726,0,0,0,2.542,2.9c2.005,1.766,3.141,2.185,3.737,2.225.975.094,2.145-.633,3.44-2.105l5.274-6,1.572,1.383-5.274,6C416.083,434.328,414.454,435.28,412.891,435.28Z" transform="translate(-404.123 -423.109)" fill="#ff6c37"/>
          </g>
          <g id="Grupo_40" data-name="Grupo 40" transform="translate(16.367 11.35)">
            <path id="Trazado_15" data-name="Trazado 15" d="M422.061,443.4l-.539-.26a1.7,1.7,0,0,1-1.01-1.463,14.34,14.34,0,0,1-5.5-1.686,13.619,13.619,0,0,1-4-2.621,4.406,4.406,0,0,1,3.52-7.3,13.57,13.57,0,0,1,4.538,1.509,29.719,29.719,0,0,1,4.624,2.673,3.625,3.625,0,0,0,.031-3.038c-.3-.528-1.113-1.378-3.3-2.436-2.345-1.135-4.31-1.458-5.847-.964L414,428l-.593-1.954.556-.182c2.039-.67,4.524-.314,7.368,1.064,2.2,1.067,3.6,2.171,4.256,3.38.842,1.526.7,3.474-.419,5.79l-2.544,5.257-.009.02.345.168Zm.5-1.88Zm-8.309-9.373a2.081,2.081,0,0,0-2.014,1.315,2.166,2.166,0,0,0,.516,2.758,13.109,13.109,0,0,0,3.155,1.917c2.835,1.372,4.4,1.569,5.257,1.443l1.649-3.409a25.462,25.462,0,0,0-4.635-2.733,12.719,12.719,0,0,0-3.466-1.261A3.724,3.724,0,0,0,414.254,432.148Z" transform="translate(-409.861 -425.539)" fill="#ff6c37"/>
          </g>
          <g id="Grupo_41" data-name="Grupo 41" transform="translate(37.053 17.857)">
            <path id="Trazado_16" data-name="Trazado 16" d="M426.557,443.069a15.856,15.856,0,0,1-2.5-.217c-2.716-.434-4.564-1.264-5.651-2.541-1.17-1.395-1.546-3.454-1.118-6.121.431-2.684,1.429-4.527,2.975-5.482,1.429-.887,3.451-1.107,6.173-.67,4.284.687,6.706,2.524,7.2,5.465l.123.727-2.039.371-.128-.742A3.719,3.719,0,0,0,429.7,431.2a10.607,10.607,0,0,0-3.585-1.11c-2.162-.348-3.751-.223-4.724.374-1.018.627-1.706,1.991-2.037,4.053s-.106,3.568.67,4.473c.739.859,2.211,1.469,4.367,1.814a9.715,9.715,0,0,0,4.153-.031,3.028,3.028,0,0,0,2.048-1.831l-2.624-.419.325-2.054,4.781.764-.163,1.027C432.542,440.556,431.1,443.069,426.557,443.069Z" transform="translate(-417.113 -427.82)" fill="#ff6c37"/>
          </g>
          <g id="Grupo_42" data-name="Grupo 42" transform="translate(58.72 18.048)">
            <path id="Trazado_17" data-name="Trazado 17" d="M431.849,443.13a7.418,7.418,0,0,1-2.927-.5c-1.709-.742-2.75-2.339-3.095-4.749l-1.118-7.787,2.062-.3,1.118,7.79c.24,1.68.85,2.718,1.86,3.172a8.9,8.9,0,0,0,4.418.12,17.075,17.075,0,0,0,3.083-.673,6.591,6.591,0,0,0,2.336-1.332l-1.535-10.7,2.062-.294,1.94,13.509-2.062.3-.071-.482a14.258,14.258,0,0,1-5.474,1.711A18.253,18.253,0,0,1,431.849,443.13Z" transform="translate(-424.709 -427.887)" fill="#ff6c37"/>
          </g>
          <g id="Grupo_43" data-name="Grupo 43" transform="translate(79.326 11.893)">
            <path id="Trazado_18" data-name="Trazado 18" d="M438.938,441.588a4.415,4.415,0,0,1-3.172-7.328,13.563,13.563,0,0,1,4.022-2.587,29.7,29.7,0,0,1,4.983-1.925,3.63,3.63,0,0,0-2.345-1.931,7.631,7.631,0,0,0-3.971,1.044c-2.35,1.113-3.834,2.439-4.416,3.948l-.22.568-1.888-.765.205-.548c.756-2.011,2.59-3.717,5.448-5.072,2.213-1.047,3.948-1.435,5.305-1.2,1.711.305,3.143,1.637,4.244,3.962l2.5,5.28.011.023.345-.166.879,1.86-.539.257a1.692,1.692,0,0,1-1.774-.131,14.327,14.327,0,0,1-4.761,3.226,13.548,13.548,0,0,1-4.552,1.472C439.141,441.586,439.038,441.588,438.938,441.588Zm6.777-9.955a25.691,25.691,0,0,0-5.035,1.894,12.659,12.659,0,0,0-3.158,1.911,2.145,2.145,0,0,0-.55,2.733,2.168,2.168,0,0,0,2.47,1.329,13.178,13.178,0,0,0,3.471-1.255c2.85-1.349,3.988-2.447,4.424-3.189Z" transform="translate(-431.933 -425.729)" fill="#ff6c37"/>
          </g>
          <g id="Grupo_44" data-name="Grupo 44" transform="translate(96.306)">
            <path id="Trazado_19" data-name="Trazado 19" d="M446.828,439.077l-8.942-10.309,1.572-1.366.573.662a9.79,9.79,0,0,1,3.2-4.507,6.9,6.9,0,0,1,5.257-1.968l.6.06-.222,2.031-.588-.057a4.913,4.913,0,0,0-3.7,1.489c-1.994,1.729-2.9,3.437-2.7,5.083l6.521,7.516Z" transform="translate(-437.886 -421.56)" fill="#ff6c37"/>
          </g>
        </g>
      </g>
      <g id="Grupo_47" data-name="Grupo 47" transform="translate(29.975)">
        <path id="Trazado_20" data-name="Trazado 20" d="M421.949,384.871l-4.019,2.7,1.161,1.726,2.2-1.483a3.026,3.026,0,0,1-.248,2.735,9.664,9.664,0,0,1-3.015,2.855c-1.814,1.218-3.312,1.774-4.427,1.657-1.184-.134-2.379-1.081-3.543-2.812s-1.6-3.2-1.281-4.356c.308-1.1,1.383-2.273,3.2-3.494a10.54,10.54,0,0,1,3.377-1.637,3.72,3.72,0,0,1,3.195.656l.6.456,1.235-1.669-.585-.445c-2.367-1.814-5.394-1.506-8.991.918-2.29,1.537-3.617,3.078-4.056,4.7-.476,1.754.051,3.785,1.566,6.036s3.189,3.494,4.995,3.714a4.817,4.817,0,0,0,.579.034,9.835,9.835,0,0,0,5.288-2.031c5.5-3.7,4.852-7.157,3.34-9.4Z" transform="translate(-406.59 -369.29)" fill="#ff6c37"/>
        <path id="Trazado_21" data-name="Trazado 21" d="M430.478,388.061l-1.734-5.571c-.767-2.464-2.005-3.99-3.671-4.532-1.312-.434-3.092-.291-5.44.442-3.026.944-5.086,2.385-6.121,4.276l-.3.539,1.823,1.055.311-.562c.781-1.4,2.43-2.507,4.906-3.277,2.313-.722,3.483-.656,4.056-.479a3.578,3.578,0,0,1,2.017,2.182,29.955,29.955,0,0,0-5.166,1.207,13.608,13.608,0,0,0-4.356,2.008,4.441,4.441,0,0,0,2.442,7.79c.131.009.268.014.411.014a15.25,15.25,0,0,0,4.313-.841,14.341,14.341,0,0,0,5.154-2.516,1.727,1.727,0,0,0,1.751.365l.6-.188-.63-2.025Zm-10.739,2.981a2.315,2.315,0,0,1-1.315-4.233,12.632,12.632,0,0,1,3.383-1.446,25.637,25.637,0,0,1,5.217-1.167l1.115,3.574c-.539.667-1.814,1.586-4.8,2.516A13.768,13.768,0,0,1,419.739,391.041Z" transform="translate(-394.319 -374.639)" fill="#ff6c37"/>
        <path id="Trazado_22" data-name="Trazado 22" d="M429.175,376.64a9.888,9.888,0,0,0-5.311,1.4l-.02-.847-2.148.048.311,13.709,2.148-.049-.228-9.972c.9-1.378,2.673-2.105,5.3-2.165a5.028,5.028,0,0,1,3.774,1.2l.437.442,1.515-1.463-.448-.453A6.857,6.857,0,0,0,429.175,376.64Z" transform="translate(-378.609 -376.636)" fill="#ff6c37"/>
        <path id="Trazado_23" data-name="Trazado 23" d="M439.138,378.8a9.926,9.926,0,0,0-5.491-.16l.22-.819-2.071-.562L428.219,390.5l2.071.562,2.6-9.63c1.247-1.07,3.158-1.266,5.691-.579a4.958,4.958,0,0,1,3.28,2.219l.3.551,1.865-.981-.3-.559A6.938,6.938,0,0,0,439.138,378.8Z" transform="translate(-366.525 -375.477)" fill="#ff6c37"/>
        <path id="Trazado_24" data-name="Trazado 24" d="M450.856,386.066c-.528-1.278-1.794-2.533-3.876-3.836-2.687-1.683-5.12-2.311-7.231-1.866l-.6.128.385,2.068.627-.128c1.578-.319,3.486.214,5.682,1.589,2.057,1.289,2.77,2.216,3.006,2.77a3.571,3.571,0,0,1-.345,2.949,29.806,29.806,0,0,0-4.279-3.135,13.55,13.55,0,0,0-4.359-2,4.439,4.439,0,0,0-4.324,6.923,13.68,13.68,0,0,0,3.705,3.049,14.32,14.32,0,0,0,5.271,2.273,1.708,1.708,0,0,0,.856,1.563l.533.334,1.127-1.8-.325-.205,3.1-4.943C451.176,389.617,451.532,387.683,450.856,386.066Zm-13.615,1.711a2.046,2.046,0,0,1,1.817-1.09,3.174,3.174,0,0,1,.753.1,12.612,12.612,0,0,1,3.3,1.626,25.667,25.667,0,0,1,4.284,3.2l-1.985,3.172c-.847.031-2.387-.345-5.035-2a13.092,13.092,0,0,1-2.918-2.242A2.134,2.134,0,0,1,437.241,387.777Z" transform="translate(-354.568 -369.986)" fill="#ff6c37"/>
      </g>
      <g id="Grupo_48" data-name="Grupo 48" transform="translate(0 50.161)">
        <path id="Trazado_25" data-name="Trazado 25" d="M451.749,394.222l-3.229,1.383a76.074,76.074,0,0,1,0,59.9l3.232,1.383a79.587,79.587,0,0,0-.006-62.662Z" transform="translate(-298.944 -394.219)" fill="#53575a"/>
        <path id="Trazado_26" data-name="Trazado 26" d="M405.743,395.6l-3.229-1.383a79.568,79.568,0,0,0-.006,62.668l3.232-1.384a76.055,76.055,0,0,1,0-59.9Z" transform="translate(-396.082 -394.221)" fill="#53575a"/>
      </g>
      <g id="Grupo_53" data-name="Grupo 53" transform="translate(0 31.58)">
        <g id="Grupo_51" data-name="Grupo 51" transform="translate(8.89)">
          <g id="Grupo_49" data-name="Grupo 49">
            <path id="Trazado_27" data-name="Trazado 27" d="M405.984,400.613l1.6-4.93h5.183l-4.193-3.047,1.6-4.93-4.193,3.047-4.193-3.047,1.6,4.93-4.193,3.047h5.183Z" transform="translate(-399.199 -387.707)" fill="#53575a"/>
            <path id="Trazado_28" data-name="Trazado 28" d="M450.817,400.613l1.6-4.93H457.6l-4.193-3.047,1.6-4.93-4.193,3.047-4.193-3.047,1.6,4.93-4.193,3.047h5.183Z" transform="translate(-316.148 -387.707)" fill="#53575a"/>
          </g>
          <g id="Grupo_50" data-name="Grupo 50" transform="translate(0 86.753)">
            <path id="Trazado_29" data-name="Trazado 29" d="M404.382,423.05H399.2l4.193,3.047-1.6,4.929,4.193-3.047,4.193,3.047-1.6-4.929,4.193-3.047h-5.183l-1.6-4.93Z" transform="translate(-399.199 -418.12)" fill="#53575a"/>
            <path id="Trazado_30" data-name="Trazado 30" d="M449.216,423.05h-5.183l4.193,3.047-1.6,4.929,4.193-3.047,4.193,3.047-1.6-4.929,4.193-3.047h-5.183l-1.6-4.93Z" transform="translate(-316.148 -418.12)" fill="#53575a"/>
          </g>
        </g>
        <g id="Grupo_52" data-name="Grupo 52" transform="translate(0 18.496)">
          <path id="Trazado_31" data-name="Trazado 31" d="M451.749,394.192l-3.229,1.383a76.074,76.074,0,0,1,0,59.9l3.232,1.383a79.587,79.587,0,0,0-.006-62.662Z" transform="translate(-298.944 -394.189)" fill="#53575a"/>
          <path id="Trazado_32" data-name="Trazado 32" d="M405.743,395.574l-3.229-1.383a79.568,79.568,0,0,0-.006,62.668l3.232-1.384a76.055,76.055,0,0,1,0-59.9Z" transform="translate(-396.082 -394.191)" fill="#53575a"/>
        </g>
      </g>
    </g>
  </g>
</svg>
